<?xml version="1.0" standalone="no"?>
<!DOCTYPE svg PUBLIC "-//W3C//DTD SVG 20010904//EN"
 "http://www.w3.org/TR/2001/REC-SVG-20010904/DTD/svg10.dtd">
<svg version="1.0" xmlns="http://www.w3.org/2000/svg"
 width="1024.000000pt" height="1024.000000pt" viewBox="0 0 1024.000000 1024.000000"
 preserveAspectRatio="xMidYMid meet">

<g transform="translate(0.000000,1024.000000) scale(0.100000,-0.100000)"
fill="#000000" stroke="none">
<path d="M0 5120 l0 -5120 5120 0 5120 0 0 5120 0 5120 -5120 0 -5120 0 0
-5120z m6400 2788 c42 -45 18 -109 -43 -114 -30 -3 -40 2 -57 25 -26 38 -25
57 5 86 30 31 68 32 95 3z m-3021 -186 c30 -43 73 -72 139 -92 45 -14 53 -20
37 -25 -145 -50 -191 -96 -220 -220 l-12 -50 -12 60 c-22 104 -82 172 -174
196 -47 13 -63 29 -29 29 33 0 117 47 149 83 27 31 61 117 64 159 0 7 8 -14
18 -48 9 -33 27 -75 40 -92z m3883 -100 c31 -31 29 -89 -6 -118 -59 -51 -146
-12 -146 66 0 30 6 43 27 60 34 26 95 23 125 -8z m-2602 -1136 c4 -659 8 -840
18 -844 7 -2 10 2 7 11 -11 27 238 128 405 164 106 22 440 26 535 5 288 -63
523 -184 703 -362 45 -45 82 -85 82 -88 0 -7 -1680 -6 -1715 1 -18 4 -20 13
-23 122 -2 102 -1 117 13 112 8 -4 15 -2 15 4 0 6 -8 9 -17 7 -17 -3 -18 -25
-21 -257 -2 -200 0 -252 10 -249 7 3 16 22 19 44 3 21 7 31 8 22 0 -10 6 -18
12 -18 8 0 10 12 6 35 l-6 35 87 2 87 2 -70 6 -70 6 90 3 c50 2 428 3 840 2
743 -2 750 -2 762 18 9 15 10 22 1 27 -6 4 -8 3 -4 -4 7 -12 -20 -10 -31 3 -4
4 -2 5 5 1 6 -4 12 -3 12 3 0 5 9 9 20 8 11 -1 20 -4 20 -7 0 -3 11 -18 24
-33 21 -24 116 -196 116 -209 0 -2 -19 -5 -42 -7 -58 -3 -79 -33 -33 -45 14
-4 23 -10 20 -15 -2 -5 2 -12 11 -15 26 -10 34 -7 27 10 -5 13 -7 13 -15 2 -5
-8 -6 -3 -2 15 4 18 2 27 -7 27 -7 0 -10 2 -7 5 10 11 36 -7 42 -28 5 -18 8
-20 16 -7 5 8 10 12 10 8 0 -3 3 -14 7 -24 5 -13 3 -15 -8 -10 -8 4 -6 1 3 -7
24 -19 56 -158 69 -299 6 -65 9 -122 7 -128 -2 -7 -89 -11 -250 -13 l-247 -1
-46 67 c-25 37 -43 73 -39 79 4 6 3 8 -3 5 -9 -5 -47 46 -90 123 -53 93 -67
113 -71 100 -12 -35 -157 -235 -170 -233 -10 1 -11 -2 -4 -9 13 -13 -15 -61
-31 -51 -5 3 -7 2 -4 -4 8 -13 -22 -55 -34 -48 -5 3 -6 -2 -2 -11 4 -12 3 -15
-5 -10 -7 4 -12 3 -12 -2 0 -6 -165 -9 -443 -9 -362 2 -445 5 -457 16 -17 16
-15 87 4 110 8 11 8 13 0 8 -7 -4 -17 0 -24 8 -10 12 -8 16 11 24 22 8 20 10
-18 16 l-43 8 -1 46 c-1 25 0 63 1 84 2 37 -15 52 -23 20 -4 -16 -5 -16 -6 0
0 11 7 21 18 24 12 3 17 11 14 19 -4 11 5 14 35 14 23 0 44 5 48 11 4 7 0 9
-14 5 -11 -4 -23 -3 -26 3 -11 18 160 23 657 19 l497 -3 0 22 c0 19 7 24 41
29 28 5 39 11 35 20 -4 11 6 14 42 15 l47 2 -50 7 c-27 5 -320 9 -650 10 -330
0 -618 4 -640 8 -22 4 -50 6 -62 4 l-23 -3 0 -480 0 -479 115 1 c84 1 118 5
126 15 6 8 16 14 21 14 6 0 5 -7 -2 -15 -11 -13 -8 -14 18 -9 24 5 32 2 41
-14 13 -24 15 -43 2 -24 -4 8 -31 14 -67 15 l-59 2 -3 -106 -3 -106 -80 -5
c-44 -3 -711 -4 -1482 -4 l-1402 1 -3 175 -2 175 286 400 c158 220 425 594
594 830 168 237 401 559 516 717 402 552 658 904 752 1031 l94 127 266 -2 267
-3 5 -839z m1530 821 c318 -53 621 -170 885 -344 582 -383 961 -977 1071
-1678 21 -136 28 -409 15 -560 -17 -181 -62 -403 -113 -553 -38 -110 -47 -127
-67 -130 -13 -2 -27 0 -32 5 -9 9 -149 376 -145 380 1 1 28 3 59 4 31 1 57 3
57 4 0 2 -15 36 -34 76 -18 41 -66 166 -106 279 -39 113 -75 208 -79 213 -4 4
-24 -39 -45 -95 -21 -57 -69 -182 -107 -280 -38 -97 -69 -181 -69 -187 0 -7
21 -11 50 -11 28 0 50 -4 50 -10 0 -18 -53 -140 -61 -140 -5 0 -32 11 -61 24
-29 14 -66 28 -81 31 -15 4 -27 8 -27 9 0 0 14 73 30 161 69 367 59 665 -35
988 -168 580 -692 1050 -1312 1176 -170 35 -280 43 -580 42 l-293 -1 0 311 0
311 468 -5 c358 -3 489 -8 562 -20z m-3373 -193 c15 -21 18 -78 3 -69 -5 3
-10 2 -10 -4 0 -6 -9 -15 -20 -21 -21 -11 -57 1 -72 24 -13 19 -9 64 7 79 19
20 75 14 92 -9z m5158 -50 c29 -31 31 -51 9 -82 -30 -44 -114 -17 -114 37 0
40 26 68 68 70 7 1 24 -11 37 -25z m-5730 -764 c24 0 83 -59 90 -90 12 -54
-33 -145 -55 -111 -5 9 -10 10 -14 2 -4 -6 -1 -11 6 -11 8 -1 6 -6 -6 -15 -42
-31 -119 -12 -153 38 -36 52 -28 130 16 164 21 17 73 32 89 27 8 -2 20 -4 27
-4z m3989 -1796 c9 -24 7 -28 -9 -14 -17 14 -20 30 -6 30 5 0 12 -7 15 -16z
m452 -103 c-4 -36 -12 -84 -18 -106 -9 -34 -12 -37 -18 -19 -4 11 -5 33 -2 49
5 26 6 27 13 10 8 -21 13 33 9 109 -1 28 2 36 10 31 9 -6 11 -27 6 -74z m-900
21 c-13 -25 -82 -131 -92 -142 -3 -2 -2 4 1 15 5 16 5 17 -3 5 -6 -8 -8 -18
-6 -22 3 -4 0 -16 -5 -25 -6 -10 -11 -12 -11 -5 0 17 -18 15 -37 -3 -8 -8 -18
-13 -21 -11 -4 2 -8 -8 -8 -22 -2 -26 -1 -26 8 -5 12 26 35 37 44 21 4 -6 3
-8 -4 -4 -6 3 -18 -4 -26 -16 -20 -29 -21 -44 -1 -28 13 10 12 6 -2 -18 -10
-18 -26 -32 -35 -32 -24 0 -23 16 2 23 28 7 16 36 -13 30 -20 -4 -21 -3 -4 10
9 8 17 16 17 19 0 2 -70 4 -155 3 -85 0 -155 -4 -155 -9 0 -5 -6 -3 -14 3 -7
6 -42 11 -77 11 -35 0 -75 0 -89 0 -14 1 -54 0 -90 0 -99 -2 -178 2 -152 7 18
4 22 11 22 43 0 37 2 40 34 46 30 5 35 10 38 38 2 21 10 34 26 41 13 6 20 16
17 25 -3 8 2 6 10 -5 14 -17 17 -18 25 -5 7 10 10 11 10 3 0 -20 67 -16 78 3
14 25 203 39 355 26 114 -10 145 -20 130 -45 -2 -4 12 -1 32 7 51 22 55 20 23
-8 -30 -25 -36 -46 -14 -46 8 0 17 -7 20 -17 6 -14 8 -14 20 3 8 10 11 21 7
24 -5 3 -8 13 -8 23 0 13 6 16 20 11 13 -4 17 -2 12 6 -4 7 2 14 16 18 19 6
13 8 -25 12 -81 8 -66 25 19 22 l75 -4 -14 -26z m407 18 c3 -11 1 -20 -4 -20
-5 0 -9 9 -9 20 0 11 2 20 4 20 2 0 6 -9 9 -20z m-26 -9 c-3 -13 1 -21 14 -24
12 -3 22 -18 25 -36 6 -28 34 -45 34 -21 0 6 18 10 40 10 33 0 40 3 40 20 0
11 5 20 11 20 5 0 8 4 5 9 -13 20 25 28 120 23 112 -5 115 -7 129 -79 5 -25 3
-33 -8 -33 -8 0 -15 6 -14 13 1 39 -4 67 -13 67 -6 0 -9 -33 -8 -85 2 -66 6
-84 17 -82 8 1 16 -4 19 -12 3 -10 0 -12 -12 -8 -10 4 -47 7 -82 7 -45 0 -63
3 -58 11 4 7 -1 7 -16 -1 -15 -8 -20 -8 -16 -1 4 6 1 11 -8 11 -8 0 -18 -4
-21 -10 -6 -10 -55 -10 -55 0 0 4 -13 6 -29 6 -21 0 -27 -4 -24 -14 5 -11 7
-11 14 -1 4 8 11 11 14 8 3 -4 -1 -11 -8 -18 -12 -9 -18 -6 -31 14 -9 14 -14
31 -10 37 4 6 3 8 -4 4 -12 -7 -39 30 -97 137 l-25 47 31 0 c26 0 30 -3 26
-19z m63 -38 c-11 -17 -11 -17 -6 0 3 10 6 24 7 30 0 9 2 9 5 0 3 -7 0 -20 -6
-30z m90 27 c0 -5 -4 -10 -9 -10 -6 0 -13 5 -16 10 -3 6 1 10 9 10 9 0 16 -4
16 -10z m320 -90 c0 -11 -4 -20 -9 -20 -7 0 -8 17 -2 38 4 10 11 -2 11 -18z
m-60 -30 c0 -5 -4 -10 -10 -10 -5 0 -10 5 -10 10 0 6 5 10 10 10 6 0 10 -4 10
-10z m60 -14 c0 -3 -4 -8 -10 -11 -5 -3 -10 -1 -10 4 0 6 5 11 10 11 6 0 10
-2 10 -4z m7 -51 c0 -8 -6 -16 -13 -19 -8 -3 -11 0 -7 10 3 7 0 14 -6 14 -6 0
-11 -4 -11 -10 0 -5 -5 -10 -11 -10 -8 0 -8 5 1 15 16 19 47 19 47 0z m-1224
-42 c-13 -2 -33 -2 -45 0 -13 2 -3 4 22 4 25 0 35 -2 23 -4z m-153 -41 c3 -3
-10 -1 -27 3 -21 4 -33 3 -33 -4 0 -6 -6 -11 -12 -11 -7 1 -2 10 11 20 24 20
26 20 61 -8z m-87 11 c-7 -3 -13 -13 -13 -23 0 -22 35 -46 45 -30 9 14 27 12
22 -2 -2 -7 -12 -13 -23 -13 -10 -1 -25 -4 -32 -8 -7 -5 -12 -3 -12 3 0 6 -12
16 -27 22 -22 9 -24 12 -10 15 20 5 23 29 5 36 -7 2 3 4 22 4 19 0 29 -2 23
-4z m177 0 c0 -5 -14 -8 -31 -9 -20 -1 -26 2 -17 7 16 11 48 12 48 2z m1205
-13 c-3 -5 -12 -10 -18 -10 -7 0 -6 4 3 10 19 12 23 12 15 0z m-1269 -37 c13
-17 15 -17 25 1 11 18 12 18 25 2 10 -14 23 -17 57 -15 25 2 43 1 40 -3 -2 -5
-22 -8 -44 -8 -28 0 -39 -4 -39 -15 0 -17 16 -20 25 -5 3 6 17 10 31 10 21 0
24 -5 25 -37 1 -21 1 -41 0 -46 -1 -4 10 -5 23 -1 14 3 29 0 37 -9 7 -8 21
-12 31 -9 10 2 18 -1 18 -7 0 -8 -73 -11 -250 -11 -243 0 -250 1 -250 20 0 22
16 27 23 8 3 -10 7 -10 19 -1 8 7 17 10 20 7 3 -3 4 17 1 43 l-4 48 15 -32 c8
-18 19 -33 25 -33 5 0 18 15 30 33 14 22 21 26 21 15 0 -22 18 -24 26 -3 4 9
19 15 35 15 26 0 29 -3 27 -26 -2 -15 3 -29 10 -31 8 -3 12 6 12 26 0 22 -7
35 -25 47 -14 9 -22 20 -19 25 8 13 15 11 30 -8z m127 10 c-13 -2 -33 -2 -45
0 -13 2 -3 4 22 4 25 0 35 -2 23 -4z m197 -12 c-13 -11 -28 -17 -33 -14 -11 6
23 32 43 32 10 1 7 -6 -10 -18z m70 -21 c5 9 9 9 14 1 4 -6 3 -11 -3 -11 -6 0
-8 -7 -4 -15 5 -14 8 -14 26 2 16 15 15 9 -8 -32 -32 -56 -65 -96 -65 -77 0 7
4 12 9 12 5 0 16 15 25 34 16 33 13 66 -5 66 -5 0 -9 7 -9 15 0 8 -5 15 -11
15 -5 0 -7 -4 -4 -10 3 -5 1 -10 -4 -10 -14 0 -14 6 1 33 11 22 11 22 21 -7 6
-19 12 -24 17 -16z m55 30 c11 -18 -7 -35 -19 -18 -6 9 -20 18 -31 21 -13 3
-9 5 12 6 17 0 35 -3 38 -9z m485 4 c-38 -8 -90 -9 -90 -2 0 4 24 7 53 7 28
-1 45 -3 37 -5z m-700 -8 c0 -3 -4 -8 -10 -11 -5 -3 -10 -1 -10 4 0 6 5 11 10
11 6 0 10 -2 10 -4z m-375 -44 c0 -18 -20 -15 -23 4 -3 10 1 15 10 12 7 -3 13
-10 13 -16z m335 8 c0 -5 -7 -10 -16 -10 -8 0 -12 5 -9 10 3 6 10 10 16 10 5
0 9 -4 9 -10z m64 4 c17 -7 22 -34 6 -34 -5 0 -10 6 -10 14 0 8 -8 17 -17 19
-10 3 -13 5 -6 6 6 0 18 -2 27 -5z m811 -24 c3 -5 1 -10 -4 -10 -6 0 -11 5
-11 10 0 6 2 10 4 10 3 0 8 -4 11 -10z m-838 -15 c9 -24 -1 -27 -15 -5 -8 13
-8 20 -2 20 6 0 13 -7 17 -15z m70 -27 c-3 -7 -5 -2 -5 12 0 14 2 19 5 13 2
-7 2 -19 0 -25z m-568 -51 c9 -2 4 -5 -11 -9 -27 -5 -28 -4 -27 41 l2 46 10
-37 c6 -20 17 -39 26 -41z m1 69 c0 -3 -4 -8 -10 -11 -5 -3 -10 -1 -10 4 0 6
5 11 10 11 6 0 10 -2 10 -4z m620 -6 c0 -5 -7 -10 -15 -10 -8 0 -15 5 -15 10
0 6 7 10 15 10 8 0 15 -4 15 -10z m749 7 c-2 -1 -13 -9 -24 -17 -19 -14 -19
-14 -6 3 7 9 18 17 24 17 6 0 8 -1 6 -3z m-829 -27 c0 -5 -4 -10 -10 -10 -5 0
-10 5 -10 10 0 6 5 10 10 10 6 0 10 -4 10 -10z m-45 -10 c3 -6 -1 -7 -9 -4
-18 7 -21 14 -7 14 6 0 13 -4 16 -10z m103 -13 c15 -10 16 -27 1 -27 -5 0 -7
5 -4 10 3 6 -1 10 -9 10 -8 0 -17 4 -20 9 -7 11 13 9 32 -2z m726 -2 c-4 -8
-8 -15 -10 -15 -2 0 -4 7 -4 15 0 8 4 15 10 15 5 0 7 -7 4 -15z m-749 -15 c3
-5 -1 -10 -9 -10 -9 0 -16 5 -16 10 0 6 4 10 9 10 6 0 13 -4 16 -10z m2299
-122 c-9 -18 -30 -52 -46 -75 l-29 -43 -537 -4 c-536 -3 -574 -5 -567 -17 3
-3 0 -20 -5 -38 -12 -44 5 -89 38 -98 15 -4 233 -8 484 -8 252 0 458 -2 458
-5 -2 -24 -94 -129 -194 -219 l-56 -51 -370 0 c-259 0 -377 -3 -395 -12 -34
-15 -54 -78 -35 -113 7 -13 20 -27 29 -32 21 -10 450 -20 444 -10 -2 4 21 7
52 6 31 -1 51 -5 45 -9 -7 -4 -10 -10 -8 -13 5 -9 -61 -56 -112 -81 l-45 -21
-943 3 -942 2 0 60 0 60 560 0 561 0 26 26 c21 21 24 32 19 62 -7 47 -37 72
-90 74 -22 1 -255 2 -516 3 -542 2 -525 2 -509 21 7 8 18 13 26 10 8 -3 11 -1
8 4 -3 6 1 10 9 10 9 0 16 4 16 9 0 4 28 23 61 41 34 18 59 28 55 21 -4 -6 -5
-11 -2 -11 2 0 11 -2 19 -5 15 -7 20 26 5 36 -5 3 -3 9 5 12 11 4 14 -1 12
-19 -1 -13 2 -24 6 -24 5 0 9 -7 9 -15 0 -8 5 -15 10 -15 6 0 10 7 10 15 0 8
7 15 15 15 9 0 12 -6 9 -15 -4 -8 -1 -15 5 -15 6 0 10 3 10 8 -3 19 2 24 15
13 7 -6 33 -12 57 -13 24 0 47 -5 50 -11 4 -5 14 -5 25 1 13 7 25 7 38 0 12
-7 21 -7 25 -1 8 13 91 24 91 13 0 -5 -7 -13 -16 -18 -13 -7 -9 -9 15 -8 18 1
31 6 31 14 0 10 4 9 16 -2 17 -17 39 -22 29 -7 -3 5 -1 12 5 16 6 3 13 -1 16
-9 3 -9 15 -16 26 -16 10 0 16 5 13 10 -10 16 13 12 42 -7 15 -10 24 -12 20
-5 -5 7 -3 12 5 12 7 0 24 3 37 7 18 5 22 3 16 -7 -6 -10 -2 -11 21 -5 16 4
38 8 49 8 11 1 22 4 25 8 3 3 15 9 28 13 16 6 22 3 22 -9 0 -9 5 -13 10 -10 6
4 8 11 5 16 -4 5 17 9 48 9 37 0 59 5 67 15 10 12 15 13 21 4 5 -9 11 -10 21
-2 7 5 44 11 81 12 71 1 120 19 131 46 12 34 6 75 -16 95 -19 18 -35 20 -142
21 -67 0 -115 3 -108 6 6 2 10 9 6 14 -3 5 2 9 11 9 11 0 15 5 11 16 -3 9 5
25 20 41 20 20 22 24 7 19 -17 -6 -16 -5 1 9 11 8 14 15 7 15 -7 0 -9 5 -6 10
3 6 1 10 -6 10 -8 0 -6 6 4 18 10 10 17 25 16 33 0 8 -4 6 -9 -6 -7 -19 -8
-19 -18 5 -23 61 -23 68 0 84 20 14 105 16 785 16 l764 0 -17 -32z m-1554 -48
c6 -11 8 -20 6 -20 -3 0 -10 9 -16 20 -6 11 -8 20 -6 20 3 0 10 -9 16 -20z
m-3968 -25 c35 -1 70 2 80 6 11 6 18 4 23 -9 6 -16 7 -16 20 1 7 10 16 14 19
9 3 -5 36 -9 73 -8 38 1 80 -2 95 -5 20 -5 28 -3 33 9 5 14 7 14 15 2 5 -8 12
-11 16 -7 4 4 13 2 21 -4 9 -9 13 -8 13 0 0 8 18 10 57 6 39 -3 59 -1 65 7 6
10 10 10 16 1 6 -9 32 -11 95 -7 48 3 87 2 87 -3 0 -4 35 -7 78 -5 42 1 86 2
97 2 11 0 38 1 60 1 122 5 201 3 208 -6 4 -7 10 -6 15 1 9 13 99 18 106 5 3
-5 25 -4 52 1 37 8 48 7 55 -3 6 -9 12 -10 17 -4 8 12 106 14 118 3 13 -14 23
-8 18 10 -4 10 -3 13 3 6 11 -14 40 -24 47 -17 10 10 59 11 84 2 12 -5 22 -5
22 0 0 5 80 9 178 10 97 1 195 2 217 2 56 2 226 -11 236 -17 5 -3 6 3 2 13 -6
16 -5 16 11 4 17 -14 66 -22 66 -11 0 3 11 6 25 6 l25 0 0 -102 0 -102 -117
-5 c-65 -3 -341 -3 -613 -1 -272 2 -888 3 -1368 4 l-873 0 3 108 3 107 33 0
c17 0 32 -3 32 -8 0 -4 11 -5 25 -3 13 3 27 0 31 -5 3 -6 10 -6 17 -1 7 5 33
8 60 7 27 -1 47 2 47 8 0 5 8 3 18 -6 10 -10 23 -17 28 -17 5 0 2 4 -6 10 -8
5 -11 12 -7 16 3 4 14 1 23 -6 12 -11 20 -11 35 -2 13 8 19 9 19 1 0 -5 5 -7
11 -3 6 3 15 1 19 -6 6 -10 11 -8 21 8 9 14 16 17 20 10 4 -7 35 -13 71 -13z
m1682 -432 c9 -9 155 -13 161 -4 5 9 76 8 91 -1 5 -4 30 -5 55 -2 24 2 50 4
57 4 43 -2 58 -5 65 -14 4 -7 10 -8 15 -1 10 15 35 12 50 -5 10 -13 11 -13 6
2 -4 11 2 18 16 23 12 4 24 4 27 1 4 -3 -1 -6 -10 -6 -10 0 -17 -4 -17 -10 0
-14 23 -13 38 2 33 33 39 -43 35 -389 l-3 -183 -364 0 -363 0 -5 253 c-6 346
-6 347 62 312 25 -13 29 -13 24 -1 -7 18 44 34 60 19z m1168 -457 c14 4 18 2
14 -5 -5 -7 1 -11 14 -11 12 0 19 4 16 9 -3 4 20 7 52 4 41 -3 53 -1 42 6 -11
8 -11 11 -2 11 7 0 15 -7 18 -15 7 -17 34 -20 34 -4 0 6 7 9 15 5 8 -3 15 0
16 7 0 9 2 9 6 0 2 -7 14 -13 24 -13 13 0 18 -4 13 -12 -4 -7 -3 -8 5 -4 6 4
9 12 6 17 -4 5 1 9 9 9 9 0 16 -4 16 -10 0 -5 5 -10 11 -10 5 0 7 5 4 10 -3 6
-2 10 4 10 5 0 13 -4 16 -10 10 -17 25 -11 19 8 -5 16 -5 16 6 0 12 -20 40
-24 40 -7 0 6 8 8 18 5 59 -16 67 -17 52 -7 -13 9 -13 11 1 11 8 0 19 -4 25
-9 5 -6 27 -6 52 -1 24 4 62 3 84 -2 27 -6 45 -5 52 2 13 13 29 13 21 0 -7
-12 8 -14 19 -2 4 4 31 7 60 8 29 0 64 4 78 7 18 5 32 2 43 -9 12 -13 19 -14
28 -5 13 13 31 15 23 2 -3 -5 13 -4 35 2 32 8 43 7 49 -3 4 -7 13 -9 19 -5 7
4 18 1 26 -5 8 -7 15 -8 15 -3 0 5 15 10 33 11 17 0 55 1 82 2 28 1 75 -1 105
-5 35 -4 50 -3 42 3 -10 6 -5 9 17 8 17 -1 31 -2 31 -4 0 -2 -15 -10 -32 -18
l-33 -15 30 7 c17 5 46 7 65 6 19 -1 50 3 68 9 18 6 35 9 38 6 7 -6 -126 -53
-241 -84 l-100 -27 -632 -4 -633 -3 0 71 c0 68 1 70 20 60 12 -6 30 -8 42 -4z
m1588 10 c0 -2 -7 -7 -16 -10 -8 -3 -12 -2 -9 4 6 10 25 14 25 6z"/>
<path d="M7195 7625 c5 -16 4 -18 -6 -7 -15 14 -33 16 -25 3 3 -5 -1 -11 -9
-15 -8 -3 -15 -10 -15 -16 0 -13 27 -13 32 0 2 5 15 11 29 12 14 1 26 8 26 15
0 6 -5 9 -10 6 -5 -3 -14 1 -19 8 -7 10 -8 9 -3 -6z"/>
<path d="M7180 7516 c0 -2 9 -6 20 -9 11 -3 20 -1 20 4 0 5 -9 9 -20 9 -11 0
-20 -2 -20 -4z"/>
<path d="M3786 5752 c-64 -92 -173 -248 -242 -347 -69 -99 -143 -205 -164
-235 -22 -30 -115 -167 -207 -304 -92 -137 -181 -264 -198 -282 -16 -18 -31
-38 -33 -44 -3 -14 -52 -87 -180 -269 -51 -73 -96 -140 -99 -147 -4 -12 92
-14 625 -14 l630 0 -5 902 c-2 496 -5 904 -7 905 -1 1 -55 -73 -120 -165z"/>
<path d="M5058 5233 c12 -2 32 -2 45 0 12 2 2 4 -23 4 -25 0 -35 -2 -22 -4z"/>
<path d="M5258 5233 c7 -3 16 -2 19 1 4 3 -2 6 -13 5 -11 0 -14 -3 -6 -6z"/>
<path d="M5978 5233 c34 -2 90 -2 125 0 34 2 6 3 -63 3 -69 0 -97 -1 -62 -3z"/>
<path d="M6448 5233 c6 -2 18 -2 25 0 6 3 1 5 -13 5 -14 0 -19 -2 -12 -5z"/>
<path d="M6177 5036 c-15 -22 -15 -25 -1 -30 9 -3 25 -6 35 -6 12 0 17 -5 14
-11 -5 -7 11 -9 46 -7 41 2 55 7 57 20 10 55 -119 84 -151 34z"/>
<path d="M2713 4790 c-9 -33 -21 -60 -27 -60 -20 0 -34 -15 -41 -43 -7 -25 -5
-27 24 -27 30 0 31 -1 31 -45 l0 -45 -72 -1 -73 -1 70 -19 c82 -23 272 -29
259 -8 -3 5 2 9 11 9 9 0 13 -4 10 -10 -3 -5 -2 -10 3 -10 15 0 22 26 9 29 -7
1 -42 5 -79 7 l-68 6 0 45 c0 44 0 44 33 41 29 -2 32 0 29 21 -3 29 -19 51
-37 51 -7 0 -20 27 -29 60 -9 33 -21 60 -26 60 -6 0 -17 -27 -27 -60z"/>
<path d="M4140 4638 c-47 -116 -93 -231 -102 -255 l-18 -43 45 0 c44 0 44 0
34 -27 -5 -15 -29 -66 -53 -115 l-44 -88 214 0 213 0 -9 23 c-6 12 -13 29 -16
37 -3 8 -20 49 -38 90 l-33 75 43 3 c24 2 44 5 44 8 0 3 -31 83 -68 177 -38
95 -81 207 -96 250 -16 42 -29 77 -30 77 0 0 -39 -95 -86 -212z"/>
<path d="M5770 4703 c0 -6 8 -17 18 -24 16 -13 16 -13 2 6 -8 11 -16 22 -17
24 -2 2 -3 0 -3 -6z"/>
<path d="M2750 7104 c0 -8 5 -12 10 -9 6 3 10 10 10 16 0 5 -4 9 -10 9 -5 0
-10 -7 -10 -16z"/>
<path d="M7929 7068 c-1 -7 -1 -19 0 -25 1 -7 -3 -13 -8 -13 -5 0 -8 9 -6 20
2 11 -1 20 -6 20 -5 0 -9 -8 -7 -17 2 -12 -3 -17 -12 -15 -10 1 -9 -2 4 -13
11 -8 23 -15 28 -15 4 0 8 -8 8 -17 1 -17 1 -17 14 0 9 11 16 14 19 7 3 -6 4
-5 3 2 -2 7 -10 12 -20 10 -9 -2 -16 2 -16 8 0 5 3 10 8 10 4 0 8 11 8 25 2
25 -15 37 -17 13z"/>
<path d="M7880 7002 c0 -6 9 -12 20 -15 11 -3 20 -3 20 -1 0 2 -9 8 -20 14
-11 6 -20 7 -20 2z"/>
<path d="M2220 6276 c0 -2 7 -7 16 -10 8 -3 12 -2 9 4 -6 10 -25 14 -25 6z"/>
<path d="M5761 4414 c0 -11 3 -14 6 -6 3 7 2 16 -1 19 -3 4 -6 -2 -5 -13z"/>
<path d="M4940 4279 c0 -5 -4 -8 -9 -5 -5 3 -14 -1 -21 -9 -11 -13 -8 -13 19
-4 29 10 43 29 21 29 -5 0 -10 -5 -10 -11z"/>
<path d="M6143 4432 c-10 -7 -10 -12 1 -27 13 -19 14 -18 13 8 -1 15 -2 27 -2
27 0 0 -6 -4 -12 -8z"/>
<path d="M6418 4403 c12 -2 32 -2 45 0 12 2 2 4 -23 4 -25 0 -35 -2 -22 -4z"/>
<path d="M6181 4380 c0 -14 4 -32 9 -40 8 -12 10 -12 9 5 0 11 -4 29 -9 40 -8
18 -9 18 -9 -5z"/>
<path d="M6204 4303 c19 -23 37 -22 35 0 0 8 -2 8 -6 -1 -4 -10 -10 -9 -27 5
l-21 18 19 -22z"/>
<path d="M5326 4068 c3 -18 7 -41 9 -50 2 -14 -4 -18 -26 -18 -20 0 -29 5 -29
16 0 17 -21 15 -27 -3 -4 -12 29 -23 72 -23 l30 0 -3 55 c-3 38 -8 55 -18 55
-10 0 -12 -9 -8 -32z"/>
<path d="M5362 4009 c2 -7 10 -15 17 -17 8 -3 12 1 9 9 -2 7 -10 15 -17 17 -8
3 -12 -1 -9 -9z"/>
<path d="M5153 3993 c9 -2 25 -2 35 0 9 3 1 5 -18 5 -19 0 -27 -2 -17 -5z"/>
<path d="M5455 3980 c-3 -5 3 -10 15 -10 12 0 18 5 15 10 -3 6 -10 10 -15 10
-5 0 -12 -4 -15 -10z"/>
<path d="M5133 3973 c9 -2 23 -2 30 0 6 3 -1 5 -18 5 -16 0 -22 -2 -12 -5z"/>
<path d="M5298 3973 c12 -2 32 -2 45 0 12 2 2 4 -23 4 -25 0 -35 -2 -22 -4z"/>
<path d="M5388 3973 c12 -2 30 -2 40 0 9 3 -1 5 -23 4 -22 0 -30 -2 -17 -4z"/>
<path d="M6383 3860 c-19 -8 -20 -12 -10 -34 12 -25 12 -26 15 -3 2 12 9 28
14 35 12 14 11 14 -19 2z"/>
<path d="M5370 3389 c0 -5 -4 -8 -9 -5 -4 3 -17 -1 -27 -10 -18 -15 -18 -15 2
-5 15 7 25 7 34 -2 10 -9 11 -9 5 2 -6 10 -2 11 16 6 21 -7 22 -6 7 9 -19 19
-28 20 -28 5z"/>
<path d="M6100 2880 c0 -5 5 -10 11 -10 5 0 7 5 4 10 -3 6 -8 10 -11 10 -2 0
-4 -4 -4 -10z"/>
<path d="M5810 2870 c0 -5 5 -10 11 -10 5 0 7 5 4 10 -3 6 -8 10 -11 10 -2 0
-4 -4 -4 -10z"/>
</g>
</svg>
